#Comment line ignore any data following # character 
#Hierarchical Translation and Rotation (.htr) file 
[Header]	
#Header keywords are followed by a single value 
FileType HTR		#Single word string
DataType HTRS		#Translation followed by rotation and scale data
FileVersion 1		#integer
NumSegments 84		#integer
NumFrames 2		#integer
DataFrameRate 30		#integer, data frame rate in this file
EulerRotationOrder ZYX
CalibrationUnits mm
RotationUnits Degrees
GlobalAxisofGravity Y
BoneLengthAxis Y
ScaleFactor 1.00
[SegmentNames&Hierarchy]
#CHILD	PARENT
MASTER GLOBAL
root MASTER
chest root
L_mid_tent01 root
R_mid_tent01 root
spine01 root
Bip01_Neck chest
L_humerus chest
R_humerus chest
weapon_bone chest
Bip01_Head Bip01_Neck
eye_left_bone Bip01_Head
eye_right_bone Bip01_Head
L_forearm L_humerus
L_front_hand L_forearm
L_weapon_bone L_forearm
L_front_hand01_01 L_front_hand
L_front_hand02_01 L_front_hand
L_front_hand03_01 L_front_hand
L_front_hand01_02 L_front_hand01_01
L_front_hand02_02 L_front_hand02_01
L_front_hand03_02 L_front_hand03_01
R_forearm R_humerus
R_front_hand R_forearm
R_weapon_bone R_forearm
R_front_hand01_01 R_front_hand
R_front_hand02_01 R_front_hand
R_front_hand03_01 R_front_hand
R_front_hand01_02 R_front_hand01_01
R_front_hand02_02 R_front_hand02_01
R_front_hand03_02 R_front_hand03_01
null_rope01_connect L_mid_tent01
Rope1_Seg01 null_rope01_connect
Rope1_Seg02 Rope1_Seg01
Rope1_Seg03 Rope1_Seg02
Rope1_Seg04 Rope1_Seg03
Rope1_Seg05 Rope1_Seg04
Rope1_Seg06 Rope1_Seg05
Rope1_Seg07 Rope1_Seg06
Rope1_Seg09 Rope1_Seg07
L_mid_hand01 Rope1_Seg09
L_mid_hand02 Rope1_Seg09
L_mid_hand03 Rope1_Seg09
null_rope02_connect R_mid_tent01
Rope2_Seg01 null_rope02_connect
Rope2_Seg02 Rope2_Seg01
Rope2_Seg03 Rope2_Seg02
Rope2_Seg04 Rope2_Seg03
Rope2_Seg05 Rope2_Seg04
Rope2_Seg06 Rope2_Seg05
Rope2_Seg07 Rope2_Seg06
Rope2_Seg09 Rope2_Seg07
R_mid_hand01 Rope2_Seg09
R_mid_hand02 Rope2_Seg09
R_mid_hand03 Rope2_Seg09
spine02 spine01
spine03 spine02
pelvis spine03
null_rope03_connect pelvis
null_rope04_connect pelvis
Rope3_Seg01 null_rope03_connect
Rope3_Seg02 Rope3_Seg01
Rope3_Seg03 Rope3_Seg02
Rope3_Seg04 Rope3_Seg03
Rope3_Seg05 Rope3_Seg04
Rope3_Seg06 Rope3_Seg05
Rope3_Seg07 Rope3_Seg06
Rope3_Seg08 Rope3_Seg07
Rope3_Seg09 Rope3_Seg08
R_rear_hand01 Rope3_Seg09
R_rear_hand02 Rope3_Seg09
R_rear_hand03 Rope3_Seg09
Rope4_Seg01 null_rope04_connect
Rope4_Seg02 Rope4_Seg01
Rope4_Seg03 Rope4_Seg02
Rope4_Seg04 Rope4_Seg03
Rope4_Seg05 Rope4_Seg04
Rope4_Seg06 Rope4_Seg05
Rope4_Seg07 Rope4_Seg06
Rope4_Seg08 Rope4_Seg07
Rope4_Seg09 Rope4_Seg08
L_rear_hand01 Rope4_Seg09
L_rear_hand02 Rope4_Seg09
L_rear_hand03 Rope4_Seg09
[BasePosition]
#SegmentName Tx, Ty, Tz, Rx, Ry, Rz, BoneLength
MASTER 0.000000 0.000000 0.000000 -90.000000 0.000000 0.000000 10.000000 
root 0.000000 0.000000 0.000000 0.000000 0.000000 0.000000 10.000000 
chest 0.000000 0.000000 0.000000 0.000000 0.000000 0.000000 10.000000 
L_mid_tent01 0.000000 0.000000 0.000000 0.000000 0.000000 0.000000 10.000000 
R_mid_tent01 0.000000 0.000000 0.000000 0.000000 0.000000 0.000000 10.000000 
spine01 0.000000 0.000000 0.000000 0.000000 0.000000 0.000000 10.000000 
Bip01_Neck 0.000000 0.000000 0.000000 0.000000 0.000000 0.000000 10.000000 
L_humerus 0.000000 0.000000 0.000000 0.000000 0.000000 0.000000 10.000000 
R_humerus 0.000000 0.000000 0.000000 0.000000 0.000000 0.000000 10.000000 
weapon_bone 0.000000 0.000000 0.000000 0.000000 0.000000 0.000000 10.000000 
Bip01_Head 0.000000 0.000000 0.000000 0.000000 0.000000 0.000000 10.000000 
eye_left_bone 0.000000 0.000000 0.000000 0.000000 0.000000 0.000000 10.000000 
eye_right_bone 0.000000 0.000000 0.000000 0.000000 0.000000 0.000000 10.000000 
L_forearm 0.000000 0.000000 0.000000 0.000000 0.000000 0.000000 10.000000 
L_front_hand 0.000000 0.000000 0.000000 0.000000 0.000000 0.000000 10.000000 
L_weapon_bone 0.000000 0.000000 0.000000 0.000000 0.000000 0.000000 10.000000 
L_front_hand01_01 0.000000 0.000000 0.000000 0.000000 0.000000 0.000000 10.000000 
L_front_hand02_01 0.000000 0.000000 0.000000 0.000000 0.000000 0.000000 10.000000 
L_front_hand03_01 0.000000 0.000000 0.000000 0.000000 0.000000 0.000000 10.000000 
L_front_hand01_02 0.000000 0.000000 0.000000 0.000000 0.000000 0.000000 10.000000 
L_front_hand02_02 0.000000 0.000000 0.000000 0.000000 0.000000 0.000000 10.000000 
L_front_hand03_02 0.000000 0.000000 0.000000 0.000000 0.000000 0.000000 10.000000 
R_forearm 0.000000 0.000000 0.000000 0.000000 0.000000 0.000000 10.000000 
R_front_hand 0.000000 0.000000 0.000000 0.000000 0.000000 0.000000 10.000000 
R_weapon_bone 0.000000 0.000000 0.000000 0.000000 0.000000 0.000000 10.000000 
R_front_hand01_01 0.000000 0.000000 0.000000 0.000000 0.000000 0.000000 10.000000 
R_front_hand02_01 0.000000 0.000000 0.000000 0.000000 0.000000 0.000000 10.000000 
R_front_hand03_01 0.000000 0.000000 0.000000 0.000000 0.000000 0.000000 10.000000 
R_front_hand01_02 0.000000 0.000000 0.000000 0.000000 0.000000 0.000000 10.000000 
R_front_hand02_02 0.000000 0.000000 0.000000 0.000000 0.000000 0.000000 10.000000 
R_front_hand03_02 0.000000 0.000000 0.000000 0.000000 0.000000 0.000000 10.000000 
null_rope01_connect 0.000000 0.000000 0.000000 0.000000 0.000000 0.000000 10.000000 
Rope1_Seg01 0.000000 0.000000 0.000000 0.000000 0.000000 0.000000 10.000000 
Rope1_Seg02 0.000000 0.000000 0.000000 0.000000 0.000000 0.000000 10.000000 
Rope1_Seg03 0.000000 0.000000 0.000000 0.000000 0.000000 0.000000 10.000000 
Rope1_Seg04 0.000000 0.000000 0.000000 0.000000 0.000000 0.000000 10.000000 
Rope1_Seg05 0.000000 0.000000 0.000000 0.000000 0.000000 0.000000 10.000000 
Rope1_Seg06 0.000000 0.000000 0.000000 0.000000 0.000000 0.000000 10.000000 
Rope1_Seg07 0.000000 0.000000 0.000000 0.000000 0.000000 0.000000 10.000000 
Rope1_Seg09 0.000000 0.000000 0.000000 0.000000 0.000000 0.000000 10.000000 
L_mid_hand01 0.000000 0.000000 0.000000 0.000000 0.000000 0.000000 10.000000 
L_mid_hand02 0.000000 0.000000 0.000000 0.000000 0.000000 0.000000 10.000000 
L_mid_hand03 0.000000 0.000000 0.000000 0.000000 0.000000 0.000000 10.000000 
null_rope02_connect 0.000000 0.000000 0.000000 0.000000 0.000000 0.000000 10.000000 
Rope2_Seg01 0.000000 0.000000 0.000000 0.000000 0.000000 0.000000 10.000000 
Rope2_Seg02 0.000000 0.000000 0.000000 0.000000 0.000000 0.000000 10.000000 
Rope2_Seg03 0.000000 0.000000 0.000000 0.000000 0.000000 0.000000 10.000000 
Rope2_Seg04 0.000000 0.000000 0.000000 0.000000 0.000000 0.000000 10.000000 
Rope2_Seg05 0.000000 0.000000 0.000000 0.000000 0.000000 0.000000 10.000000 
Rope2_Seg06 0.000000 0.000000 0.000000 0.000000 0.000000 0.000000 10.000000 
Rope2_Seg07 0.000000 0.000000 0.000000 0.000000 0.000000 0.000000 10.000000 
Rope2_Seg09 0.000000 0.000000 0.000000 0.000000 0.000000 0.000000 10.000000 
R_mid_hand01 0.000000 0.000000 0.000000 0.000000 0.000000 0.000000 10.000000 
R_mid_hand02 0.000000 0.000000 0.000000 0.000000 0.000000 0.000000 10.000000 
R_mid_hand03 0.000000 0.000000 0.000000 0.000000 0.000000 0.000000 10.000000 
spine02 0.000000 0.000000 0.000000 0.000000 0.000000 0.000000 10.000000 
spine03 0.000000 0.000000 0.000000 0.000000 0.000000 0.000000 10.000000 
pelvis 0.000000 0.000000 0.000000 0.000000 0.000000 0.000000 10.000000 
null_rope03_connect 0.000000 0.000000 0.000000 0.000000 0.000000 0.000000 10.000000 
null_rope04_connect 0.000000 0.000000 0.000000 0.000000 0.000000 0.000000 10.000000 
Rope3_Seg01 0.000000 0.000000 0.000000 0.000000 0.000000 0.000000 10.000000 
Rope3_Seg02 0.000000 0.000000 0.000000 0.000000 0.000000 0.000000 10.000000 
Rope3_Seg03 0.000000 0.000000 0.000000 0.000000 0.000000 0.000000 10.000000 
Rope3_Seg04 0.000000 0.000000 0.000000 0.000000 0.000000 0.000000 10.000000 
Rope3_Seg05 0.000000 0.000000 0.000000 0.000000 0.000000 0.000000 10.000000 
Rope3_Seg06 0.000000 0.000000 0.000000 0.000000 0.000000 0.000000 10.000000 
Rope3_Seg07 0.000000 0.000000 0.000000 0.000000 0.000000 0.000000 10.000000 
Rope3_Seg08 0.000000 0.000000 0.000000 0.000000 0.000000 0.000000 10.000000 
Rope3_Seg09 0.000000 0.000000 0.000000 0.000000 0.000000 0.000000 10.000000 
R_rear_hand01 0.000000 0.000000 0.000000 0.000000 0.000000 0.000000 10.000000 
R_rear_hand02 0.000000 0.000000 0.000000 0.000000 0.000000 0.000000 10.000000 
R_rear_hand03 0.000000 0.000000 0.000000 0.000000 0.000000 0.000000 10.000000 
Rope4_Seg01 0.000000 0.000000 0.000000 0.000000 0.000000 0.000000 10.000000 
Rope4_Seg02 0.000000 0.000000 0.000000 0.000000 0.000000 0.000000 10.000000 
Rope4_Seg03 0.000000 0.000000 0.000000 0.000000 0.000000 0.000000 10.000000 
Rope4_Seg04 0.000000 0.000000 0.000000 0.000000 0.000000 0.000000 10.000000 
Rope4_Seg05 0.000000 0.000000 0.000000 0.000000 0.000000 0.000000 10.000000 
Rope4_Seg06 0.000000 0.000000 0.000000 0.000000 0.000000 0.000000 10.000000 
Rope4_Seg07 0.000000 0.000000 0.000000 0.000000 0.000000 0.000000 10.000000 
Rope4_Seg08 0.000000 0.000000 0.000000 0.000000 0.000000 0.000000 10.000000 
Rope4_Seg09 0.000000 0.000000 0.000000 0.000000 0.000000 0.000000 10.000000 
L_rear_hand01 0.000000 0.000000 0.000000 0.000000 0.000000 0.000000 10.000000 
L_rear_hand02 0.000000 0.000000 0.000000 0.000000 0.000000 0.000000 10.000000 
L_rear_hand03 0.000000 0.000000 0.000000 0.000000 0.000000 0.000000 10.000000 
#Beginning of Data. Separated by tabs
#Fr	Tx	Ty	Tz	Rx	Ry	Rz	SF
[MASTER]
4 0.000000 0.000000 0.000000 0.001660 0.001660 0.001660 0.000000
5 0.000000 0.000000 0.000000 0.001660 0.001660 0.001660 0.000000
[root]
4 6.778721 -69.235779 1633.336426 -66.201942 -12.177461 -90.404648 1634.817261
5 10.078261 -83.721848 1667.598267 -61.476013 -12.682191 -90.584534 1669.729004
[chest]
4 -84.512650 -34.090519 0.000000 3.750918 -2.315655 178.115921 91.129311
5 -84.512650 -34.090519 0.000000 5.048368 -2.994669 -179.380966 91.129311
[L_mid_tent01]
4 27.299099 22.179245 -249.918762 -20.279434 28.360073 34.497604 252.381744
5 27.299099 22.179239 -249.918762 -20.094629 31.017044 39.456711 252.381744
[R_mid_tent01]
4 23.228794 24.509907 226.238495 -116.193077 -23.178978 -2.682394 228.744751
5 23.228794 24.509907 226.238495 -98.068153 -26.494947 -11.426752 228.744751
[spine01]
4 -0.361383 -0.195265 0.000000 -0.047961 -0.021576 22.414770 0.410763
5 -0.361383 -0.195265 0.000000 -0.059127 -0.026884 22.510567 0.410763
[Bip01_Neck]
4 165.484543 71.581718 0.000119 175.896118 1.177290 24.871185 180.302734
5 165.484543 71.581718 0.000119 175.896118 1.177290 24.871185 180.302734
[L_humerus]
4 -13.983130 -135.272980 -120.471481 -5.068082 66.464890 84.982231 181.680161
5 -13.983130 -135.272980 -120.471481 -4.982957 65.902206 85.069817 181.680161
[R_humerus]
4 -13.983309 -135.273102 125.287651 -70.004761 -50.070820 174.340714 184.909012
5 -13.983309 -135.273102 125.287651 -78.372894 -35.524708 -177.808685 184.909012
[weapon_bone]
4 235.964890 -300.705902 0.000000 0.000000 -89.951546 -128.212341 382.234833
5 235.964890 -300.705902 0.000000 0.000000 -89.951546 -128.212341 382.234833
[Bip01_Head]
4 252.076172 142.481552 -7.517396 7.500472 5.844789 -62.453285 289.654816
5 251.015961 146.311523 -7.751390 8.471702 5.845271 -62.456406 290.647827
[eye_left_bone]
4 0.293885 120.273361 -57.783695 0.000000 -90.000000 -99.840431 133.434341
5 0.591433 120.211510 -57.700321 0.000000 -90.000000 -99.840431 133.343475
[eye_right_bone]
4 0.298768 120.271721 71.316490 0.000000 -89.980217 80.156380 139.826385
5 0.596354 120.209831 71.399925 0.000000 -89.965736 80.156380 139.816696
[L_forearm]
4 322.776093 0.000000 -0.000119 0.000416 -0.002310 -110.416672 322.776093
5 322.776093 0.000000 -0.000119 0.000421 -0.002309 -110.651375 322.776093
[L_front_hand]
4 241.149185 -0.042021 -3.300071 -178.667953 -1.835447 -27.422350 241.171753
5 241.149185 -0.042021 -3.300071 -178.667953 -1.835447 -27.422344 241.171753
[L_weapon_bone]
4 156.183838 0.000000 0.000000 0.000014 0.000007 0.000001 156.183838
5 156.183838 0.000000 0.000000 0.000014 0.000007 0.000001 156.183838
[L_front_hand01_01]
4 86.095154 20.947098 -0.655860 -0.366594 -0.477154 75.385574 88.609184
5 86.095154 20.947098 -0.655860 -0.366594 -0.477154 75.385574 88.609184
[L_front_hand02_01]
4 86.935165 -11.437475 24.513514 154.403519 -59.888931 -61.371990 91.046425
5 86.935165 -11.437475 24.513514 154.403519 -59.888931 -61.371990 91.046425
[L_front_hand03_01]
4 86.637497 -14.123976 -20.424902 -153.913849 58.118122 -62.702866 90.126129
5 86.637497 -14.123976 -20.424902 -153.913834 58.118107 -62.702850 90.126129
[L_front_hand01_02]
4 71.020905 -0.000179 0.000030 0.000334 -0.002323 -106.379684 71.020905
5 71.020905 -0.000179 0.000030 0.000334 -0.002323 -106.379700 71.020905
[L_front_hand02_02]
4 71.020927 -0.000119 0.000060 0.000334 -0.002323 -106.379684 71.020927
5 71.020927 -0.000119 0.000060 0.000334 -0.002323 -106.379700 71.020927
[L_front_hand03_02]
4 71.020905 -0.000060 0.000060 0.000334 -0.002323 -106.379684 71.020905
5 71.020905 -0.000060 0.000060 0.000334 -0.002323 -106.379700 71.020905
[R_forearm]
4 322.776428 -0.000060 0.000030 0.200631 0.069558 -110.566879 322.776428
5 322.776428 -0.000060 0.000030 0.203999 0.055391 -106.453468 322.776428
[R_front_hand]
4 238.847015 -0.006795 2.210259 -9.796306 -1.069173 -35.815430 238.857239
5 238.847015 -0.006795 2.210259 -13.355768 -1.139235 -29.010593 238.857239
[R_weapon_bone]
4 155.664093 0.002503 -0.000030 0.003487 0.001180 -90.988930 155.664078
5 155.664093 0.002503 -0.000030 0.003487 0.001180 -90.988914 155.664078
[R_front_hand01_01]
4 87.624611 14.231146 22.918642 -116.960213 3.496675 -1.324139 91.683487
5 87.624611 14.231146 22.918642 -116.960213 3.496535 -1.324067 91.683487
[R_front_hand02_01]
4 89.356956 14.367283 -19.491137 118.419647 -4.257089 0.609827 92.579636
5 89.356956 14.367283 -19.491137 118.419647 -4.256951 0.609903 92.579636
[R_front_hand03_01]
4 87.286232 -22.307278 -0.143439 -0.387970 -0.231462 4.232001 90.091743
5 87.286232 -22.307278 -0.143439 -0.387969 -0.231463 4.231843 90.091743
[R_front_hand01_02]
4 71.020905 0.000060 0.000119 0.001777 0.001534 8.377220 71.020905
5 71.020905 0.000060 0.000119 0.001777 0.001534 8.377238 71.020905
[R_front_hand02_02]
4 71.020844 -0.000030 -0.000119 0.001777 0.001534 8.377220 71.020836
5 71.020844 -0.000030 -0.000119 0.001777 0.001534 8.377238 71.020836
[R_front_hand03_02]
4 71.020905 0.000000 0.000030 0.001777 0.001534 8.377220 71.020905
5 71.020905 0.000000 0.000030 0.001777 0.001534 8.377238 71.020905
[null_rope01_connect]
4 328.732483 0.000000 -0.000238 -119.943489 -76.144753 -179.705246 328.732483
5 328.732483 0.000000 -0.000238 -113.597290 -78.191147 168.852463 328.732483
[Rope1_Seg01]
4 -0.000027 -0.000064 0.000015 -147.626541 61.887642 -130.769760 0.000071
5 -0.000023 -0.000063 0.000020 -155.782104 71.295502 -139.541229 0.000070
[Rope1_Seg02]
4 139.999863 -0.000179 0.000000 -10.199695 -3.578658 22.273558 139.999863
5 139.999863 -0.000179 0.000000 -8.321564 -4.963109 26.401047 139.999863
[Rope1_Seg03]
4 139.999924 0.000060 -0.000060 -6.481259 -8.966707 31.623091 139.999924
5 139.999924 0.000060 -0.000060 -2.758804 -6.507534 26.177828 139.999924
[Rope1_Seg04]
4 139.999924 -0.000060 -0.000119 -1.775813 -13.603445 23.069656 139.999924
5 139.999924 -0.000060 -0.000119 0.579610 -6.477716 15.756545 139.999924
[Rope1_Seg05]
4 139.999832 0.000119 -0.000060 0.426934 -9.389689 14.050503 139.999832
5 139.999832 0.000119 -0.000060 -0.296076 -8.649313 11.216331 139.999832
[Rope1_Seg06]
4 139.999954 0.000119 -0.000060 1.663094 -4.620739 7.876135 139.999954
5 139.999954 0.000119 -0.000060 0.448658 -5.546729 7.561296 139.999954
[Rope1_Seg07]
4 139.999985 0.000060 0.000000 1.043296 -1.709302 3.147280 139.999985
5 139.999985 0.000060 0.000000 0.937320 -3.012223 4.713179 139.999985
[Rope1_Seg09]
4 121.602913 0.000119 -0.000089 -89.793175 -1.359789 0.847147 121.602913
5 121.602913 0.000119 -0.000089 -89.793175 -1.359789 0.847147 121.602913
[L_mid_hand01]
4 103.859421 1.038730 8.195221 114.520287 -53.310486 -20.623234 104.187431
5 103.859421 1.038730 8.195221 114.520294 -53.310486 -20.623241 104.187431
[L_mid_hand02]
4 105.572853 -4.139662 -10.864139 -155.067688 38.166626 -52.448826 106.211075
5 105.572853 -4.139662 -10.864139 -155.067673 38.166618 -52.448807 106.211075
[L_mid_hand03]
4 104.641464 17.579376 -3.913581 -10.970131 15.317461 57.626949 106.179977
5 104.641464 17.579376 -3.913581 -10.970129 15.317457 57.626934 106.179977
[null_rope02_connect]
4 328.732849 0.000179 -0.000119 -155.379166 0.906361 -70.321236 328.732849
5 328.732849 0.000179 -0.000119 -151.194977 -20.029364 -71.414413 328.732849
[Rope2_Seg01]
4 0.000095 0.000153 0.000008 -11.075171 -37.754372 -9.033843 0.000180
5 0.000095 0.000153 0.000010 -4.252945 -41.011578 -15.413199 0.000180
[Rope2_Seg02]
4 139.999741 -0.000060 -0.000119 -1.053070 -5.436337 4.781658 139.999756
5 139.999741 -0.000060 -0.000119 -1.467044 -6.396213 6.214438 139.999756
[Rope2_Seg03]
4 140.000107 0.000030 0.000000 -1.595595 -10.435651 9.016924 140.000107
5 140.000107 0.000030 0.000000 -2.200566 -12.914783 12.290241 140.000107
[Rope2_Seg04]
4 139.999802 0.000000 -0.000060 -3.303751 -25.807402 18.930159 139.999802
5 139.999802 0.000000 -0.000060 -3.631841 -29.453094 22.176340 139.999802
[Rope2_Seg05]
4 139.999985 -0.000060 0.000119 3.715473 -28.947912 22.890177 139.999985
5 139.999985 -0.000060 0.000119 11.310226 -19.979988 20.432619 139.999985
[Rope2_Seg06]
4 139.999893 -0.000030 -0.000119 30.983374 1.491903 16.211891 139.999893
5 139.999893 -0.000030 -0.000119 32.810181 5.809381 17.699226 139.999893
[Rope2_Seg07]
4 139.999893 0.000060 -0.000060 15.150278 12.269875 6.086158 139.999893
5 139.999893 0.000060 -0.000060 14.845952 11.918862 7.388993 139.999893
[Rope2_Seg09]
4 121.338966 0.000089 -0.000060 78.029205 -0.130009 -1.541778 121.338966
5 121.338966 0.000089 -0.000060 86.893234 0.160745 -1.555356 121.338966
[R_mid_hand01]
4 104.680779 11.144459 -10.335981 -16.212313 45.237183 70.462517 105.778534
5 104.680779 11.144459 -10.335981 -47.384258 2.963522 5.452604 105.778534
[R_mid_hand02]
4 104.070427 2.443552 8.231699 49.067799 -67.749626 39.286053 104.424065
5 104.070427 2.443552 8.231699 75.626297 -2.250001 1.111093 104.424065
[R_mid_hand03]
4 106.028137 -11.221827 -5.996406 -177.101028 15.551016 -76.585335 106.788818
5 106.028137 -11.221827 -5.996406 -164.381912 2.495983 -6.140520 106.788818
[spine02]
4 129.756927 0.001550 0.000119 0.372622 -7.404377 -10.549023 129.756927
5 129.756927 0.001550 0.000119 0.292853 -9.009105 -9.109596 129.756927
[spine03]
4 78.614044 0.081619 -4.899019 1.973600 3.790366 17.680922 78.766579
5 78.614044 0.081614 -4.899018 1.997730 3.783118 17.967144 78.766579
[pelvis]
4 169.435242 0.051022 0.000000 -0.061883 -0.179743 14.990361 169.435257
5 169.435242 0.051022 0.000000 -0.062219 -0.179627 15.204879 169.435257
[null_rope03_connect]
4 -1.257226 -2.466202 137.391083 18.550686 -64.374603 39.803513 137.418976
5 -1.257226 -2.466202 137.391083 20.825199 -59.215584 36.593143 137.418976
[null_rope04_connect]
4 -1.259640 -2.480268 -137.844437 18.550686 -64.374603 39.803513 137.872513
5 -1.259640 -2.480268 -137.844437 20.825199 -59.215584 36.593143 137.872513
[Rope3_Seg01]
4 0.000000 0.000000 0.000000 -137.109543 -23.452511 -63.034225 0.000000
5 0.000000 0.000000 0.000000 -137.908737 -37.396317 -70.608406 0.000000
[Rope3_Seg02]
4 139.999924 -0.000119 0.000060 -3.019810 5.698141 -5.321888 139.999924
5 139.999924 -0.000119 0.000060 -2.427574 6.115952 -5.098298 139.999924
[Rope3_Seg03]
4 139.999924 -0.000119 0.000119 -13.786574 21.786764 -17.525131 139.999924
5 139.999924 -0.000119 0.000119 -6.711578 14.314733 -11.291784 139.999924
[Rope3_Seg04]
4 139.999924 0.000119 0.000000 -36.887180 48.944706 -43.459305 139.999924
5 139.999924 0.000119 0.000000 -14.379717 32.205566 -19.134506 139.999924
[Rope3_Seg05]
4 139.999924 -0.000238 0.000060 -58.143162 57.604107 -83.118431 139.999924
5 139.999924 -0.000238 0.000060 -11.075779 34.323696 -20.609926 139.999924
[Rope3_Seg06]
4 139.999893 -0.000119 -0.000060 0.272935 12.370956 -5.258750 139.999893
5 139.999893 -0.000119 -0.000060 -9.044356 35.324577 -24.253525 139.999893
[Rope3_Seg07]
4 139.999771 0.000060 -0.000119 0.694867 3.781373 -1.638163 139.999771
5 139.999771 0.000060 -0.000119 -0.093473 12.294146 -6.289148 139.999771
[Rope3_Seg08]
4 139.999985 -0.000060 0.000000 0.605941 1.017997 -0.457887 139.999985
5 139.999985 -0.000060 0.000000 0.577506 4.709471 -2.370546 139.999985
[Rope3_Seg09]
4 90.185997 -0.000179 -0.000060 85.867897 -1.360304 -0.844492 90.185997
5 90.185997 -0.000179 -0.000060 83.393219 -1.362577 -0.847354 90.185997
[R_rear_hand01]
4 103.366196 -6.073594 -10.757982 -156.303818 7.047817 -5.016659 104.101845
5 103.366196 -6.073594 -10.757982 -157.171555 9.603128 -11.017536 104.101845
[R_rear_hand02]
4 100.509819 12.039542 -7.992327 -38.618435 3.465873 7.345703 101.543350
5 100.509819 12.039542 -7.992327 -38.131180 7.480927 12.434102 101.543350
[R_rear_hand03]
4 101.539970 5.215704 5.435467 84.293983 -4.764470 4.337550 101.819031
5 101.539970 5.215704 5.435467 84.201599 -11.195566 4.994817 101.819031
[Rope4_Seg01]
4 -0.000018 -0.000069 -0.000153 49.339008 -10.525255 -158.362839 0.000168
5 -0.000018 -0.000066 -0.000153 53.468521 -13.348256 -161.982849 0.000167
[Rope4_Seg02]
4 139.999985 0.000060 0.000119 -20.727604 -0.979975 -13.279482 139.999985
5 139.999985 0.000060 0.000119 -12.439624 -2.472769 -7.776790 139.999985
[Rope4_Seg03]
4 139.999924 0.000000 -0.000238 -49.128105 8.568521 -28.245554 139.999924
5 139.999924 0.000000 -0.000238 -39.226757 -1.421618 -16.179359 139.999924
[Rope4_Seg04]
4 139.999985 0.000000 0.000119 -24.336720 31.190575 -15.814536 139.999985
5 139.999985 0.000000 0.000119 -52.302490 20.660326 -27.393456 139.999985
[Rope4_Seg05]
4 139.999802 -0.000060 -0.000119 -7.023911 25.661840 -8.056737 139.999802
5 139.999802 -0.000060 -0.000119 -11.249372 30.090036 -4.173169 139.999802
[Rope4_Seg06]
4 139.999924 0.000000 0.000060 -0.340984 23.932983 -6.388184 139.999924
5 139.999924 0.000000 0.000060 -5.375276 20.024820 -8.978482 139.999924
[Rope4_Seg07]
4 139.999802 0.000000 0.000000 2.453189 12.566628 -2.824075 139.999802
5 139.999802 0.000000 0.000000 -0.954292 15.870742 -7.171851 139.999802
[Rope4_Seg08]
4 139.999924 0.000000 0.000119 0.437228 6.119573 -1.673837 139.999924
5 139.999924 0.000000 0.000119 -0.797823 7.916712 -2.309405 139.999924
[Rope4_Seg09]
4 90.185791 0.000060 0.000060 -135.617828 2.228885 0.850567 90.185791
5 90.185791 0.000060 0.000060 -135.617828 2.228885 0.850567 90.185791
[L_rear_hand01]
4 101.696655 -8.392275 -7.654577 -19.915020 -33.950905 119.950104 102.329041
5 101.696655 -8.392275 -7.654577 -19.915020 -33.950905 119.950104 102.329041
[L_rear_hand02]
4 102.726799 -1.568258 5.773216 77.862221 61.878510 165.399200 102.900848
5 102.726799 -1.568258 5.773216 77.862244 61.878517 165.399200 102.900848
[L_rear_hand03]
4 104.552910 9.721220 -10.420293 -173.099182 -23.740307 -117.327896 105.519653
5 104.552910 9.721220 -10.420293 -173.099182 -23.740309 -117.327911 105.519653
